<?xml version="1.0" standalone="no"?>
<!DOCTYPE svg PUBLIC "-//W3C//DTD SVG 20010904//EN"
 "http://www.w3.org/TR/2001/REC-SVG-20010904/DTD/svg10.dtd">
<svg version="1.0" xmlns="http://www.w3.org/2000/svg"
 width="64.000000pt" height="64.000000pt" viewBox="0 0 64.000000 64.000000"
 preserveAspectRatio="xMidYMid meet">

<g transform="translate(0.000000,64.000000) scale(0.100000,-0.100000)"
fill="#000000" stroke="none">
<path d="M0 320 l0 -320 320 0 320 0 0 320 0 320 -320 0 -320 0 0 -320z m346
153 c8 -3 21 0 29 7 12 10 15 10 15 -3 0 -8 5 -17 12 -19 6 -2 8 -10 4 -16
-11 -19 -152 -16 -160 3 -3 9 0 15 9 15 8 0 15 4 15 8 0 5 10 8 23 8 17 -1 23
6 26 29 l5 30 4 -28 c2 -16 10 -31 18 -34z m-26 -93 c0 -45 -24 -56 -39 -17
-9 22 -9 22 -20 -6 -15 -38 -16 -37 24 -37 l35 0 0 -86 0 -85 -61 47 c-33 26
-62 52 -65 56 -7 12 44 10 67 -2 15 -8 19 -7 19 5 0 11 -11 15 -45 15 -25 0
-45 4 -45 8 0 5 7 30 16 56 12 35 13 51 5 59 -21 21 -11 27 49 27 l60 0 0 -40z
m128 20 c-7 -11 -16 -20 -20 -20 -5 0 -8 -35 -8 -77 0 -57 -4 -81 -17 -95 -9
-10 -20 -18 -25 -18 -4 0 -8 43 -8 95 0 88 -1 95 -20 95 -13 0 -20 7 -20 20 0
18 7 20 65 20 63 0 65 -1 53 -20z"/>
</g>
</svg>
